<svg width="18" height="20" fill="none" xmlns="http://www.w3.org/2000/svg"><path d="M4.558 19.53c-.988-.124-2.1-.37-3.088-.865-.247-.123-.494-.37-.74-.494-.248-.247-.495-.617-.495-.988.124-.864.124-1.852.247-2.717.247-.988.865-1.606 1.853-1.73.37 0 .617-.123.988-.246.988-.247 1.852-.618 2.717-1.235.864.988 2.1.988 3.334.988.247 0 .494 0 .742-.124.617-.123 1.358-.247 1.729-.864 1.111.864 2.346 1.235 3.705 1.358 1.235.247 1.852.865 1.976 1.976.123.742.123 1.483.247 2.347 0 .618-.247.988-.618 1.359l-1.482.74c-.74.248-1.358.371-2.1.618-3.884.605-5.435.324-9.015-.123ZM9.25.016c1.113-.124 2.1.494 2.965 1.111.741.494.865 1.359.988 2.224.124.617.124 1.111.37 1.729.248.74.124 1.482-.37 2.1l-.37.74c-.37.618-.742 1.235-1.112 1.73-.123.246-.494.493-.741.617-1.359.988-2.717.988-3.952-.124-.618-.617-1.112-1.482-1.606-2.223 0-.247-.247-.494-.37-.74-.494-.495-.618-1.606-.37-2.347.123-.37.123-.741.246-1.112 0-.37.124-.741.124-.988.247-.865.617-1.482 1.482-1.976C7.398.263 8.139.016 9.25.016Z" fill="#fff"/></svg>