<svg width="51" height="100" fill="none" xmlns="http://www.w3.org/2000/svg"><path fill="#fff" d="M0 0h50.094v50H0z"/><path stroke="#EDEDED" d="M0 49.5h50.094"/><rect x="10.647" y="13.624" width="28.8" height="19.752" rx="1.4" stroke="#D90404" stroke-width="1.2"/><path stroke="#D90404" d="M18.683 33.446h12.728v2.824H18.683z"/><path d="m16.477 28.718 2.158-8.024 2.806 6.808 2.86-9.24 2.212 11.428 2.59-7.294 2.429 6.322 2.374-5.836" stroke="#D90404" stroke-width="1.2" stroke-linejoin="round"/><circle cx="18.692" cy="20.965" r="1" fill="#D90404"/><circle cx="16.604" cy="27.963" r="1" fill="#D90404"/><circle cx="24.319" cy="18.515" r="1" fill="#D90404"/><circle cx="29.076" cy="22.534" r="1" fill="#D90404"/><circle cx="33.779" cy="23.13" r="1" fill="#D90404"/><circle cx="31.505" cy="28.485" r="1" fill="#D90404"/><circle cx="26.498" cy="29.437" r="1" fill="#D90404"/><circle cx="21.49" cy="27.296" r="1" fill="#D90404"/><path fill="#fff" d="M0 50h50.094v50H0z"/><path stroke="#EDEDED" d="M0 99.5h50.094"/><mask id="path-16-inside-1_243_133" fill="#fff"><rect x="18.264" y="70.865" width="12.871" height="8.269" rx="1"/></mask><rect x="18.264" y="70.865" width="12.871" height="8.269" rx="1" stroke="#025159" stroke-width="2.4" mask="url('#path-16-inside-1_243_133')"/><mask id="path-17-inside-2_243_133" fill="#fff"><rect x="11.297" y="63" width="6.77" height="6.77" rx="1"/></mask><rect x="11.297" y="63" width="6.77" height="6.77" rx="1" stroke="#025159" stroke-width="2.4" mask="url('#path-17-inside-2_243_133')"/><mask id="path-18-inside-3_243_133" fill="#fff"><rect x="32.027" y="63" width="6.77" height="6.77" rx="1"/></mask><rect x="32.027" y="63" width="6.77" height="6.77" rx="1" stroke="#025159" stroke-width="2.4" mask="url('#path-18-inside-3_243_133')"/><path d="M17.596 66.608h1.315c.797 0 2.05.3 2.05 1.458 0 .675-.015 2.147 0 2.8M32.027 66.608h-1.315c-.797 0-2.05.3-2.05 1.458 0 .675.015 2.147 0 2.8" stroke="#025159" stroke-width="1.2"/><mask id="path-21-inside-4_243_133" fill="#fff"><rect x="38.797" y="87" width="6.77" height="6.77" rx="1" transform="rotate(-180 38.797 87)"/></mask><rect x="38.797" y="87" width="6.77" height="6.77" rx="1" transform="rotate(-180 38.797 87)" stroke="#025159" stroke-width="2.4" mask="url('#path-21-inside-4_243_133')"/><mask id="path-22-inside-5_243_133" fill="#fff"><rect x="18.067" y="87" width="6.77" height="6.77" rx="1" transform="rotate(-180 18.067 87)"/></mask><rect x="18.067" y="87" width="6.77" height="6.77" rx="1" transform="rotate(-180 18.067 87)" stroke="#025159" stroke-width="2.4" mask="url('#path-22-inside-5_243_133')"/><path d="M32.499 83.392h-1.316c-.797 0-2.05-.3-2.05-1.458 0-.674.015-2.147 0-2.8M18.067 83.392h1.315c.797 0 2.05-.3 2.05-1.458 0-.674-.014-2.147 0-2.8" stroke="#025159" stroke-width="1.2"/></svg>