<svg width="20" height="21" fill="none" xmlns="http://www.w3.org/2000/svg"><mask id="path-1-inside-1_243_361" fill="#fff"><path d="M20 10.5c0 5.523-4.477 10-10 10s-10-4.477-10-10S4.477.5 10 .5s10 4.477 10 10Zm-17.77 0a7.77 7.77 0 1 0 15.54 0 7.77 7.77 0 0 0-15.54 0Z"/></mask><path d="M20 10.5c0 5.523-4.477 10-10 10s-10-4.477-10-10S4.477.5 10 .5s10 4.477 10 10Zm-17.77 0a7.77 7.77 0 1 0 15.54 0 7.77 7.77 0 0 0-15.54 0Z" fill="#00A124" stroke="#00A124" stroke-width="1.6" stroke-linecap="round" mask="url('#path-1-inside-1_243_361')"/><path d="M9.736 10.842v-3.94" stroke="#025159" stroke-width="1.2" stroke-linecap="round"/><path d="M11.056 10.5h3.903" stroke="#025159" stroke-linecap="round"/><circle cx="10" cy="10.5" r="1.429" fill="#025159"/></svg>