<svg width="172" height="40" fill="none" xmlns="http://www.w3.org/2000/svg"><path fill="#D90404" d="M0 0h172v40H0z"/><path fill-rule="evenodd" clip-rule="evenodd" d="M91.91 16.903v5.392c0 1.187.458 1.651 1.723 1.651h3.06c1.265 0 1.724-.464 1.724-1.651v-5.392h3.087v6.011c0 2.322-1.293 3.432-4.13 3.432h-4.422c-2.837 0-4.13-1.11-4.13-3.432v-6.011h3.087Zm47.636-.103c2.78 0 4.435.645 4.435 3.38v2.786c0 2.735-1.655 3.38-4.435 3.38h-4.95c-2.782 0-4.436-.645-4.436-3.38v-2.787c0-2.734 1.654-3.379 4.436-3.379h4.95Zm-120.458.103v3.328h6.507v-3.328h3.086v9.34h-3.086v-3.535h-6.507v3.534H16v-9.34h3.088Zm20.16 0 5.533 9.34h-3.434l-.958-1.652h-6.257l-.905 1.651h-3.448l5.45-9.34h4.018Zm9.72 0v6.94h6.94v2.4H45.882v-9.34h3.087Zm11.334 0v6.94h6.94v2.4H57.216v-9.34h3.087Zm11.501 0v9.34h-3.087v-9.34h3.087Zm11.14 0c2.46 0 3.656.62 3.656 2.45 0 1.6-.625 1.91-1.487 2.142v.04c1.348.154 1.849.825 1.849 2.23 0 2.052-1.307 2.477-3.073 2.477h-9.83v-9.339h8.884Zm29.962 0c2.378 0 3.017 1.097 3.017 2.774v.593c0 1.251-.307 1.986-1.724 2.296v.026c.918.155 1.682.529 1.682 2.064v1.587h-3.087V25.12c0-.98-.305-1.303-1.265-1.303h-4.853v2.425h-3.087v-9.339h9.317Zm16.129 0v2.322h-4.339v7.017h-3.087v-7.017h-4.338v-2.322h11.764Zm21.594 0 5.799 6.785h.027v-6.785h3.088v9.34h-4.785l-5.797-6.786h-.028v6.785h-3.087v-9.339h4.783Zm-67.95 5.637h-5.534v1.458h5.534c.668 0 1.113-.142 1.113-.684 0-.632-.445-.774-1.113-.774Zm56.2-3.341h-3.616c-1.626 0-1.932.71-1.932 1.87v1.007c0 1.354.306 1.87 1.765 1.87h3.95c1.46 0 1.766-.516 1.766-1.87V21.07c0-1.162-.306-1.871-1.933-1.871Zm-101.646-.128-1.947 3.508h3.95l-2.003-3.508Zm74.268.154h-4.825v2.27h5.103c.835 0 1.14-.309 1.14-.98v-.31c0-.825-.444-.98-1.418-.98Zm-28.891-.078h-5.465v1.458h5.465c.57 0 .904-.193.904-.722 0-.542-.335-.735-.904-.735Z" fill="#fff"/></svg>