<svg width="20" height="20" fill="none" xmlns="http://www.w3.org/2000/svg"><path d="M8.425 1v2.007a7.177 7.177 0 0 0-2.13.855L4.907 2.414 2.633 4.595 4.02 6.041a7.177 7.177 0 0 0-1.015 2.384H1v3.15h2.007c.169.752.457 1.47.855 2.13l-1.448 1.388 2.181 2.274 1.446-1.386c.726.48 1.534.824 2.384 1.015V19h3.15v-2.007a7.178 7.178 0 0 0 2.13-.855l1.388 1.447 2.274-2.18-1.386-1.446a7.177 7.177 0 0 0 1.015-2.384H19v-3.15h-2.007a7.174 7.174 0 0 0-.855-2.13l1.447-1.388-2.18-2.274-1.446 1.386a7.177 7.177 0 0 0-2.384-1.015V1h-3.15Z" stroke="#fff" stroke-width="1.2" stroke-linecap="round" stroke-linejoin="round"/><path d="M9.999 14.066a4.066 4.066 0 1 0 0-8.132 4.066 4.066 0 0 0 0 8.132Z" stroke="#fff" stroke-width="1.2" stroke-linecap="round" stroke-linejoin="round"/></svg>