<svg width="20" height="20" fill="none" xmlns="http://www.w3.org/2000/svg"><path d="M9.459.922a.558.558 0 0 1 1.082 0l1.627 5.234c.204.659.8 1.126 1.496 1.126h5.263c.263 0 .462.167.541.422a.628.628 0 0 1-.214.706l-4.258 3.235a1.649 1.649 0 0 0-.564 1.798l1.626 5.234a.627.627 0 0 1-.214.706.516.516 0 0 1-.654 0l-4.258-3.235a1.533 1.533 0 0 0-1.864 0L4.81 19.383a.516.516 0 0 1-.654 0 .627.627 0 0 1-.214-.706l1.626-5.234a1.649 1.649 0 0 0-.564-1.798L.746 8.41a.628.628 0 0 1-.214-.706c.08-.255.278-.422.541-.422h5.263c.696 0 1.292-.467 1.496-1.126L9.46.922Z" stroke="#A8A8A8"/></svg>