<svg width="22" height="21" fill="none" xmlns="http://www.w3.org/2000/svg"><path d="M9.51 1.289c.34-1.032 1.817-1.032 2.157 0l1.722 5.234c.152.462.587.774 1.078.774h5.573c1.099 0 1.556 1.388.667 2.026l-4.509 3.235c-.397.285-.564.79-.412 1.252l1.722 5.234c.34 1.032-.856 1.89-1.745 1.252l-4.508-3.235a1.146 1.146 0 0 0-1.333 0l-4.509 3.235c-.889.638-2.084-.22-1.745-1.252L5.39 13.81a1.112 1.112 0 0 0-.412-1.252L.47 9.323c-.89-.638-.432-2.026.666-2.026H6.71c.491 0 .927-.312 1.079-.774L9.51 1.29Z" fill="#FE0F65"/></svg>